<?xml version="1.0" encoding="utf-8"?>
<!-- Generator: Adobe Illustrator 26.3.1, SVG Export Plug-In . SVG Version: 6.00 Build 0)  -->
<svg version="1.1" id="Layer_1" xmlns="http://www.w3.org/2000/svg" xmlns:xlink="http://www.w3.org/1999/xlink" x="0px" y="0px"
	 viewBox="0 0 612 612" style="enable-background:new 0 0 612 612;" xml:space="preserve">
<style type="text/css">
	.st0{fill:none;}
	.st1{fill:#010101;}
	.st2{fill:none;stroke:#010101;stroke-miterlimit:10;}
</style>
<path class="st0" d="M254.2,573.2"/>
<path class="st0" d="M284.9,576.9C284.9,576.9,284.9,576.9,284.9,576.9"/>
<path class="st0" d="M254,573c0.1,0,0.1,0.1,0.2,0.1"/>
<g>
	<g>
		<path class="st1" d="M222.4,542.9c7.7,0,7.7-12,0-12C214.7,530.9,214.6,542.9,222.4,542.9L222.4,542.9z"/>
	</g>
</g>
<g>
	<g>
		<path class="st1" d="M253.9,584.9c7.7,0,7.7-12,0-12C246.2,572.9,246.2,584.9,253.9,584.9L253.9,584.9z"/>
	</g>
</g>
<g>
	<g>
		<path class="st1" d="M285.2,589.1c7.7,0,7.7-12,0-12C277.4,577.1,277.4,589.1,285.2,589.1L285.2,589.1z"/>
	</g>
</g>
<g>
	<g>
		<path class="st1" d="M253.9,521c7.7,0,7.7-12,0-12C246.2,509,246.2,521,253.9,521L253.9,521z"/>
	</g>
</g>
<g>
	<g>
		<path class="st1" d="M317.8,492.4c7.7,0,7.7-12,0-12C310.1,480.4,310.1,492.4,317.8,492.4L317.8,492.4z"/>
	</g>
</g>
<g>
	<g>
		<path class="st1" d="M316.1,556c7.7,0,7.7-12,0-12C308.4,544,308.4,556,316.1,556L316.1,556z"/>
	</g>
</g>
<g>
	<g>
		<path class="st1" d="M348,522.2c7.7,0,7.7-12,0-12C340.2,510.2,340.2,522.2,348,522.2L348,522.2z"/>
	</g>
</g>
<g>
	<g>
		<path class="st1" d="M254.5,453.3c7.7,0,7.7-12,0-12C246.7,441.3,246.7,453.3,254.5,453.3L254.5,453.3z"/>
	</g>
</g>
<g>
	<g>
		<path class="st1" d="M287.1,461.4c7.7,0,7.7-12,0-12C279.4,449.4,279.4,461.4,287.1,461.4L287.1,461.4z"/>
	</g>
</g>
<g>
	<g>
		<path class="st1" d="M285,490.9c7.7,0,7.7-12,0-12C277.3,478.9,277.2,490.9,285,490.9L285,490.9z"/>
	</g>
</g>
<g>
	<g>
		<path class="st1" d="M128.1,340.5c7.7,0,7.7-12,0-12C120.4,328.5,120.4,340.5,128.1,340.5L128.1,340.5z"/>
	</g>
</g>
<g>
	<g>
		<path class="st1" d="M86.5,310.4c7.7,0,7.7-12,0-12C78.7,298.4,78.7,310.4,86.5,310.4L86.5,310.4z"/>
	</g>
</g>
<g>
	<g>
		<path class="st1" d="M153.3,309.7c7.7,0,7.7-12,0-12C145.5,297.7,145.5,309.7,153.3,309.7L153.3,309.7z"/>
	</g>
</g>
<g>
	<g>
		<path class="st1" d="M128.5,275.4c7.7,0,7.7-12,0-12C120.8,263.4,120.8,275.4,128.5,275.4L128.5,275.4z"/>
	</g>
</g>
<g>
	<g>
		<path class="st1" d="M185.3,310.8c7.7,0,7.7-12,0-12C177.5,298.8,177.5,310.8,185.3,310.8L185.3,310.8z"/>
	</g>
</g>
<g>
	<g>
		<path class="st1" d="M223.2,276.5c7.7,0,7.7-12,0-12C215.5,264.5,215.5,276.5,223.2,276.5L223.2,276.5z"/>
	</g>
</g>
<g>
	<g>
		<path class="st1" d="M248.9,310c7.7,0,7.7-12,0-12C241.2,298,241.2,310,248.9,310L248.9,310z"/>
	</g>
</g>
<g>
	<g>
		<path class="st1" d="M221,341.3c7.7,0,7.7-12,0-12C213.3,329.3,213.2,341.3,221,341.3L221,341.3z"/>
	</g>
</g>
<g>
	<g>
		<path class="st1" d="M254.5,381.9c7.7,0,7.7-12,0-12C246.7,369.9,246.7,381.9,254.5,381.9L254.5,381.9z"/>
	</g>
</g>
<g>
	<g>
		<path class="st1" d="M221.7,398.2c7.7,0,7.7-12,0-12C214,386.2,214,398.2,221.7,398.2L221.7,398.2z"/>
	</g>
</g>
<g>
	<g>
		<path class="st1" d="M320,364.7c7.7,0,7.7-12,0-12C312.2,352.7,312.2,364.7,320,364.7L320,364.7z"/>
	</g>
</g>
<g>
	<g>
		<path class="st1" d="M287.2,363.6c7.7,0,7.7-12,0-12C279.5,351.6,279.5,363.6,287.2,363.6L287.2,363.6z"/>
	</g>
</g>
<g>
	<g>
		<path class="st1" d="M352,385.9c7.7,0,7.7-12,0-12C344.2,373.9,344.2,385.9,352,385.9L352,385.9z"/>
	</g>
</g>
<g>
	<g>
		<path class="st1" d="M318.5,431c7.7,0,7.7-12,0-12C310.7,419,310.7,431,318.5,431L318.5,431z"/>
	</g>
</g>
<g>
	<g>
		<path class="st1" d="M452.9,343.5c7.7,0,7.7-12,0-12C445.2,331.5,445.2,343.5,452.9,343.5L452.9,343.5z"/>
	</g>
</g>
<g>
	<g>
		<path class="st1" d="M547.8,345.8c7.7,0,7.7-12,0-12C540,333.8,540,345.8,547.8,345.8L547.8,345.8z"/>
	</g>
</g>
<g>
	<g>
		<path class="st1" d="M583.4,314.9c7.7,0,7.7-12,0-12C575.7,302.9,575.7,314.9,583.4,314.9L583.4,314.9z"/>
	</g>
</g>
<g>
	<g>
		<path class="st1" d="M549,282.9c7.7,0,7.7-12,0-12C541.3,270.9,541.2,282.9,549,282.9L549,282.9z"/>
	</g>
</g>
<g>
	<g>
		<path class="st1" d="M520.5,314.9c7.7,0,7.7-12,0-12C512.8,302.9,512.8,314.9,520.5,314.9L520.5,314.9z"/>
	</g>
</g>
<g>
	<g>
		<path class="st1" d="M490.7,313c7.7,0,7.7-12,0-12C482.9,301,482.9,313,490.7,313L490.7,313z"/>
	</g>
</g>
<g>
	<g>
		<path class="st1" d="M453.9,284c7.7,0,7.7-12,0-12C446.2,272,446.2,284,453.9,284L453.9,284z"/>
	</g>
</g>
<g>
	<g>
		<path class="st1" d="M425.4,312c7.7,0,7.7-12,0-12C417.7,300,417.7,312,425.4,312L425.4,312z"/>
	</g>
</g>
<g>
	<g>
		<path class="st1" d="M338.6,195.8c7.7,0,7.7-12,0-12C330.8,183.8,330.8,195.8,338.6,195.8L338.6,195.8z"/>
	</g>
</g>
<g>
	<g>
		<path class="st1" d="M307.3,223.3c7.7,0,7.7-12,0-12C299.6,211.3,299.6,223.3,307.3,223.3L307.3,223.3z"/>
	</g>
</g>
<g>
	<g>
		<path class="st1" d="M273.4,195.8c7.7,0,7.7-12,0-12C265.7,183.8,265.7,195.8,273.4,195.8L273.4,195.8z"/>
	</g>
</g>
<g>
	<g>
		<path class="st1" d="M308,159.3c7.7,0,7.7-12,0-12C300.3,147.3,300.3,159.3,308,159.3L308,159.3z"/>
	</g>
</g>
<g>
	<g>
		<path class="st1" d="M307.7,127c7.7,0,7.7-12,0-12C300,115,299.9,127,307.7,127L307.7,127z"/>
	</g>
</g>
<g>
	<g>
		<path class="st1" d="M273.8,95c7.7,0,7.7-12,0-12C266.1,83,266.1,95,273.8,95L273.8,95z"/>
	</g>
</g>
<g>
	<g>
		<path class="st1" d="M340,95.9c7.7,0,7.7-12,0-12C332.3,83.9,332.3,95.9,340,95.9L340,95.9z"/>
	</g>
</g>
<g>
	<g>
		<path class="st1" d="M308.4,63.3c7.7,0,7.7-12,0-12C300.7,51.3,300.7,63.3,308.4,63.3L308.4,63.3z"/>
	</g>
</g>
<circle class="st2" cx="303.3" cy="303.7" r="280.1"/>
<circle class="st2" cx="303.3" cy="303.7" r="247"/>
<circle class="st2" cx="303.3" cy="303.7" r="217.2"/>
<circle class="st2" cx="308" cy="303.7" r="182.7"/>
<circle class="st2" cx="304.9" cy="304.8" r="151.6"/>
<circle class="st2" cx="305.3" cy="306" r="120.1"/>
<circle class="st2" cx="305.4" cy="305.9" r="88.6"/>
<circle class="st2" cx="305.1" cy="304.8" r="56.9"/>
</svg>
