<?xml version="1.0" encoding="utf-8"?>
<!-- Generator: Adobe Illustrator 26.3.1, SVG Export Plug-In . SVG Version: 6.00 Build 0)  -->
<svg version="1.1" id="Layer_1" xmlns="http://www.w3.org/2000/svg" xmlns:xlink="http://www.w3.org/1999/xlink" x="0px" y="0px"
     viewBox="0 0 612 612" style="enable-background:new 0 0 612 612;" xml:space="preserve">
  <style type="text/css">
    .st0{fill:none;}
    .st1{fill:#010101;}
    .st2{fill:none;stroke:#010101;stroke-miterlimit:10;}
    .cls-1 {
    fill: #231f20;
    font-family: Apple-Chancery, 'Apple Chancery';
    font-size: 14.00000px;
    }

  </style>
  <path class="st0" d="M254.2,573.2"/>
  <path class="st0" d="M284.9,576.9C284.9,576.9,284.9,576.9,284.9,576.9"/>
  <path class="st0" d="M254,573c0.1,0,0.1,0.1,0.2,0.1"/>
  <g>
    <g>
      <path class="st1" d="M222.4,542.9c7.7,0,7.7-12,0-12C214.7,530.9,214.6,542.9,222.4,542.9L222.4,542.9z"/>
    </g>
  </g>
  <g>
    <g>
      <path class="st1" d="M253.9,584.9c7.7,0,7.7-12,0-12C246.2,572.9,246.2,584.9,253.9,584.9L253.9,584.9z"/>
    </g>
  </g>
  <g>
    <g>
      <path class="st1" d="M285.2,589.1c7.7,0,7.7-12,0-12C277.4,577.1,277.4,589.1,285.2,589.1L285.2,589.1z"/>
    </g>
  </g>
  <g>
    <g>
      <path class="st1" d="M253.9,516.9c7.7,0,7.7-12,0-12C246.2,504.9,246.2,516.9,253.9,516.9L253.9,516.9z"/>
    </g>
  </g>
  <g>
    <g>
      <path class="st1" d="M317.8,492.4c7.7,0,7.7-12,0-12C310.1,480.4,310.1,492.4,317.8,492.4L317.8,492.4z"/>
    </g>
  </g>
  <g>
    <g>
      <path class="st1" d="M316.1,552.9c7.7,0,7.7-12,0-12C308.4,540.9,308.4,552.9,316.1,552.9L316.1,552.9z"/>
    </g>
  </g>
  <g>
    <g>
      <path class="st1" d="M348,520.5c7.7,0,7.7-12,0-12C340.2,508.5,340.2,520.5,348,520.5L348,520.5z"/>
    </g>
  </g>
  <g>
    <g>
      <path class="st1" d="M254.5,451.1c7.7,0,7.7-12,0-12C246.7,439.1,246.7,451.1,254.5,451.1L254.5,451.1z"/>
    </g>
  </g>
  <g>
    <g>
      <path class="st1" d="M287.1,461.4c7.7,0,7.7-12,0-12C279.4,449.4,279.4,461.4,287.1,461.4L287.1,461.4z"/>
    </g>
  </g>
  <g>
    <g>
      <path class="st1" d="M285,492c7.7,0,7.7-12,0-12C277.3,480,277.2,492,285,492L285,492z"/>
    </g>
  </g>
  <g>
    <g>
      <path class="st1" d="M125.3,340.5c7.7,0,7.7-12,0-12C117.6,328.5,117.6,340.5,125.3,340.5L125.3,340.5z"/>
    </g>
  </g>
  <g>
    <g>
      <path class="st1" d="M91.9,310.4c7.7,0,7.7-12,0-12C84.1,298.4,84.1,310.4,91.9,310.4L91.9,310.4z"/>
    </g>
  </g>
  <g>
    <g>
      <path class="st1" d="M153.3,309.7c7.7,0,7.7-12,0-12C145.5,297.7,145.5,309.7,153.3,309.7L153.3,309.7z"/>
    </g>
  </g>
  <g>
    <g>
      <path class="st1" d="M125.7,275.4c7.7,0,7.7-12,0-12C118,263.4,118,275.4,125.7,275.4L125.7,275.4z"/>
    </g>
  </g>
  <g>
    <g>
      <path class="st1" d="M185.3,310.8c7.7,0,7.7-12,0-12C177.5,298.8,177.5,310.8,185.3,310.8L185.3,310.8z"/>
    </g>
  </g>
  <g>
    <g>
      <path class="st1" d="M223.2,276.5c7.7,0,7.7-12,0-12C215.5,264.5,215.5,276.5,223.2,276.5L223.2,276.5z"/>
    </g>
  </g>
  <g>
    <g>
      <path class="st1" d="M248.9,310c7.7,0,7.7-12,0-12C241.2,298,241.2,310,248.9,310L248.9,310z"/>
    </g>
  </g>
  <g>
    <g>
      <path class="st1" d="M221,341.3c7.7,0,7.7-12,0-12C213.3,329.3,213.2,341.3,221,341.3L221,341.3z"/>
    </g>
  </g>
  <g>
    <g>
      <path class="st1" d="M254.5,381.9c7.7,0,7.7-12,0-12C246.7,369.9,246.7,381.9,254.5,381.9L254.5,381.9z"/>
    </g>
  </g>
  <g>
    <g>
      <path class="st1" d="M221.7,398.2c7.7,0,7.7-12,0-12C214,386.2,214,398.2,221.7,398.2L221.7,398.2z"/>
    </g>
  </g>
  <g>
    <g>
      <path class="st1" d="M320,364.7c7.7,0,7.7-12,0-12C312.2,352.7,312.2,364.7,320,364.7L320,364.7z"/>
    </g>
  </g>
  <g>
    <g>
      <path class="st1" d="M287.2,363.6c7.7,0,7.7-12,0-12C279.5,351.6,279.5,363.6,287.2,363.6L287.2,363.6z"/>
    </g>
  </g>
  <g>
    <g>
      <path class="st1" d="M352,385.9c7.7,0,7.7-12,0-12C344.2,373.9,344.2,385.9,352,385.9L352,385.9z"/>
    </g>
  </g>
  <g>
    <g>
      <path class="st1" d="M318.5,428.4c7.7,0,7.7-12,0-12C310.7,416.4,310.7,428.4,318.5,428.4L318.5,428.4z"/>
    </g>
  </g>
  <g>
    <g>
      <path class="st1" d="M453.9,343.5c7.7,0,7.7-12,0-12C446.2,331.5,446.2,343.5,453.9,343.5L453.9,343.5z"/>
    </g>
  </g>
  <g>
    <g>
      <path class="st1" d="M547.8,345.8c7.7,0,7.7-12,0-12C540,333.8,540,345.8,547.8,345.8L547.8,345.8z"/>
    </g>
  </g>
  <g>
    <g>
      <path class="st1" d="M583.4,314.9c7.7,0,7.7-12,0-12C575.7,302.9,575.7,314.9,583.4,314.9L583.4,314.9z"/>
    </g>
  </g>
  <g>
    <g>
      <path class="st1" d="M549,282.9c7.7,0,7.7-12,0-12C541.3,270.9,541.2,282.9,549,282.9L549,282.9z"/>
    </g>
  </g>
  <g>
    <g>
      <path class="st1" d="M520.5,314.9c7.7,0,7.7-12,0-12C512.8,302.9,512.8,314.9,520.5,314.9L520.5,314.9z"/>
    </g>
  </g>
  <g>
    <g>
      <path class="st1" d="M488.5,313c7.7,0,7.7-12,0-12C480.8,301,480.8,313,488.5,313L488.5,313z"/>
    </g>
  </g>
  <g>
    <g>
      <path class="st1" d="M453.9,284c7.7,0,7.7-12,0-12C446.2,272,446.2,284,453.9,284L453.9,284z"/>
    </g>
  </g>
  <g>
    <g>
      <path class="st1" d="M426.7,311.9c7.7,0,7.7-12,0-12C419,299.9,419,311.9,426.7,311.9L426.7,311.9z"/>
    </g>
  </g>
  <g>
    <g>
      <path class="st1" d="M338.6,195.8c7.7,0,7.7-12,0-12C330.8,183.8,330.8,195.8,338.6,195.8L338.6,195.8z"/>
    </g>
  </g>
  <g>
    <g>
      <path class="st1" d="M307.3,221.9c7.7,0,7.7-12,0-12C299.6,209.9,299.6,221.9,307.3,221.9L307.3,221.9z"/>
    </g>
  </g>
  <g>
    <g>
      <path class="st1" d="M273.4,194.3c7.7,0,7.7-12,0-12C265.7,182.3,265.7,194.3,273.4,194.3L273.4,194.3z"/>
    </g>
  </g>
  <g>
    <g>
      <path class="st1" d="M308,159.3c7.7,0,7.7-12,0-12C300.3,147.3,300.3,159.3,308,159.3L308,159.3z"/>
    </g>
  </g>
  <g>
    <g>
      <path class="st1" d="M307.7,127c7.7,0,7.7-12,0-12C300,115,299.9,127,307.7,127L307.7,127z"/>
    </g>
  </g>
  <g>
    <g>
      <path class="st1" d="M273.8,98.3c7.7,0,7.7-12,0-12C266.1,86.3,266.1,98.3,273.8,98.3L273.8,98.3z"/>
    </g>
  </g>
  <g>
    <g>
      <path class="st1" d="M340,98.3c7.7,0,7.7-12,0-12C332.3,86.3,332.3,98.3,340,98.3L340,98.3z"/>
    </g>
  </g>
  <g>
    <g>
      <path class="st1" d="M308.4,63.3c7.7,0,7.7-12,0-12C300.7,51.3,300.7,63.3,308.4,63.3L308.4,63.3z"/>
    </g>
  </g>
  <!-- <circle id="c1" class="st2" cx="303" cy="303" r="280"/> -->
  <!-- <circle id="c2" class="st2" cx="303" cy="303" r="248"/> -->
  <circle class="st2" cx="303" cy="303" r="216"/>
  <circle class="st2" cx="303" cy="303" r="184"/>
  <circle class="st2" cx="303" cy="303" r="152"/>
  <circle class="st2" cx="303" cy="303" r="120"/>
  <circle class="st2" cx="303" cy="303" r="88"/>
  <circle class="st2" cx="303" cy="303" r="57"/>

  <!-- 1: M253.9,584.9   M285.2,589.1 = 31.3,5  -->
  <!-- M253.9,578.9      M284.9,582.68 = 31,3.78 -->

  <path id="p01" fill="none" transform="translate(0,0)"	d="M 253.9,578.9  a 280,280 0 1,1 31,3.78" />

  <!-- 4 222.3812,537.3884    34 549.3249,276.9 -->
  <!-- 4 222.3812,537.3884    7 316.6581,550.493 -->

  <path id="p02" fill="none" transform="translate(0,0)"	d="M 222.3812,537.3884  a 248,248 0 1,1 326.9437,-260.4884" />

  <!-- 35 548.1811,339.8 -->
  <!--  7 316.6581,550.493 -->


  <path id="p02b" fill="none" transform="translate(0,0)" d="M 548.1811,339.8  a 248,248 0 0,1 -231.523,210.693" />

  <!--  5 253.9,513  -->
  <!-- 26 273.8,88.9672  -->

  <path id="p03" fill="none" transform="translate(0,0)"	d="M 253.9076,515.0128  a 216,216 0 0,1  19.907,-426.0456" />

<!-- 27 340,90.2984 -->
<!-- 9 347.9625,514.5 -->

  <path id="p03b" fill="none" transform="translate(0,0)" d="M 340,90.2984  a 216,216 0 0,1  7,424" />

<!--  6 284.9812,486   -->
<!-- 12 121.2968,334.5 -->

  <path id="p04" fill="none" transform="translate(0,0)" d="M 284.9812,486  a 184,184 0 0,1  -163.6844,-151.5" />

<!-- 14 122.6976,269.4  -->
<!--  8 317.8,486.4     -->
  
  <path id="p04b" fill="none" transform="translate(0,0)" d="M 122.6976,269.4  a 184,184 0 1,1  195.1024,217" />

  <text class="cls-1">
    <textPath href="#p01">punkin squish punkin squish punkin squish punkin squish punkin squish punkin squish punkin squish punkin squish punkin squish punkin squish punkin squish punkin squish punkin squish punkin squish punkin squish punkin squish punkin squish punkin squish punkin squish punkin squish punkin squish asdfasdf
    </textPath>

    <textPath href="#p02">punkin squish punkin squish punkin squish punkin squish punkin squish punkin squish punkin squish punkin squish punkin squish squish punkin squish punkin squish punkin squish punkin
    </textPath>

    <textPath href="#p02b">punkin squish punkin squish punkin squish punkin squish punkin squish </textPath>

    <textPath href="#p03">punkin squish punkin squish punkin squish punkin squish punkin squish punkin squish punkin squish punkin squish punkin squish punkin squish 
    </textPath>

    <textPath href="#p03b">punkin squish punkin squish punkin squish punkin squish punkin squish punkin squish punkin squish punkin squish punkin squish punkin squish 
    </textPath>

    <textPath href="#p04">punkin squish punkin squish punkin squish punkin squish punkin squish punkin squish punkin squish punkin squish punkin squish punkin squish 
    </textPath>

    <textPath href="#p04b">punkin squish punkin squish punkin squish punkin squish punkin squish punkin squish punkin squish punkin squish punkin squish punkin squish 
    </textPath>

  </text>



</svg>
