<?xml version="1.0" encoding="utf-8"?>
<!-- Generator: Adobe Illustrator 26.3.1, SVG Export Plug-In . SVG Version: 6.00 Build 0)  -->
<svg version="1.1" id="Layer_1" xmlns="http://www.w3.org/2000/svg" xmlns:xlink="http://www.w3.org/1999/xlink" x="0px" y="0px"
     viewBox="0 0 700 700" style="enable-background:new 0 0 700 700;" xml:space="preserve">
  <style type="text/css">
    .st0{fill:none;}
    .st1{fill:#010101;}
    .st2{fill:none;stroke:#010101;stroke-miterlimit:10;}
    .cls-1 {
    fill: #231f20;
    font-family: Apple-Chancery, 'Apple Chancery';
    font-size: 14.00000px;
    }

  </style>
  <circle id="c1" class="st2" cx="303" cy="303" r="280"/>
  <circle id="c2" class="st2" cx="303" cy="303" r="248"/>
  <circle class="st2" cx="303" cy="303" r="216"/>
  <circle class="st2" cx="303" cy="303" r="184"/>
  <circle class="st2" cx="303" cy="303" r="152"/>
  <circle class="st2" cx="303" cy="303" r="120"/>
  <circle class="st2" cx="303" cy="303" r="88"/>
  <!-- <circle class="st2" cx="303" cy="303" r="57"/> -->


    <path  fill="none" transform="translate(0,0)"  id="pid1"  d="M 253,579  a 280,280  0 1,1  33,4"  />
  <path  fill="none" transform="translate(0,0)"  id="pid2"  d="M 222,537  a 248,248  0 1,1  327,-260"  />
  <path  fill="none" transform="translate(0,0)"  id="pid3"  d="M 548,340  a 248,248  0 0,1  -232,210"  />
  <path  fill="none" transform="translate(0,0)"  id="pid4"  d="M 253,513  a 216,216  0 0,1  20,-423"  />
  <path  fill="none" transform="translate(0,0)"  id="pid5"  d="M 340,91  a 216,216  0 0,1  8,423"  />
  <path  fill="none" transform="translate(0,0)"  id="pid6"  d="M 286,486  a 184,184  0 0,1  -165,-152"  />


      <path  fill="none" transform="translate(0,0)"  id="pid7"  d="M 123,270  a 184,184  0 1,1  195,216"  />


      <path  fill="none" transform="translate(0,0)"  id="pid8"  d="M 254,445  a 152,152  0 1,1  199,-167"  />

      <path  fill="none" transform="translate(0,0)"  id="pid9"  d="M 453,340  a 152,152  0 0,1  -167,114"  />

  <path  fill="none" transform="translate(0,0)"  id="pid10"  d="M 222,392  a 120,120  0 0,1  51,-205"  />


  <path  fill="none" transform="translate(0,0)"  id="pid11"  d="M 338.5625,189.8  a 120,120  0 0,1  -20.5625,232.2"  />

  <path  fill="none" transform="translate(0,0)"  id="pid12"  d="M 254,376  a 88,88  0 0,1  -33,-41"  />

  
  <text class="cls-1">
    <textPath href="#pid1">punkin squish punkin squish punkin squish punkin squish punkin squish punkin squish punkin squish punkin squish punkin squish punkin squish punkin squish punkin squish punkin squish punkin squish punkin squish punkin squish punkin squish punkin squish punkin squish punkin squish punkin squish 
    </textPath>

    <textPath href="#pid2">punkin squish punkin squish punkin squish punkin squish punkin squish punkin squish punkin squish punkin squish punkin squish punkin squish punkin squish punkin squish punkin squish 
    </textPath>

    <textPath href="#pid3">punkin squish punkin squish punkin squish punkin squish punkin squish
    </textPath>

    <textPath href="#pid4">punkin squish punkin squish punkin squish punkin squish punkin squish punkin squish punkin squish punkin squish punkin squish 
    </textPath>

    <textPath href="#pid5">punkin squish punkin squish punkin squish punkin squish punkin squish punkin squish punkin squish punkin
    </textPath>

    <textPath href="#pid6">punkin squish punkin squish punkin squish 
    </textPath>

    <textPath href="#pid7">punkin squish punkin squish punkin squish punkin squish punkin squish punkin squish punkin squish punkin squish punkin squish punkin squish 
    </textPath>

    <textPath href="#pid8">punkin squish punkin squish punkin squish punkin squish punkin squish punkin squish punkin squish punkin squish punkin squish punkin squish 
    </textPath>

    <textPath href="#pid9">punkin squish punkin squish punkin squish punkin squish punkin squish punkin squish punkin squish punkin squish punkin squish punkin squish 
    </textPath>

    <textPath href="#pid10">punkin squish punkin squish punkin squish punkin squish
    </textPath>

    <textPath href="#pid11">punkin squish punkin squish punkin squish punkin squish </textPath>

    <textPath href="#pid12">punkin squish  </textPath>

    <textPath href="#pid13">punkin squish punkin squish punkin squish punkin squish </textPath>

  </text>



</svg>
