<?xml version="1.0" encoding="utf-8"?>
<!-- Brent Reeves, labyrynth.svg  -->
<svg version="1.1" id="Layer_1" xmlns="http://www.w3.org/2000/svg" xmlns:xlink="http://www.w3.org/1999/xlink" x="0px" y="0px"
viewBox="0 0 700 700" style="enable-background:new 0 0 700 700;" xml:space="preserve">
<style type="text/css">
  .st0{fill:none;}
  .st1{fill:#010101;}
  .st2{fill:none;stroke:#010101;stroke-miterlimit:10;}
  .cls1 {
  fill: #231f20;
  font-family: 'Trattatello', 'Trattatello';
  font-face: Regular;
  font-size: 14.00000px;
}

  <!-- font-family: 'Brush Script MT Italic', 'Brush Script MT Italic'; -->

  <!-- font-family: bromello, 'Bromello Regular'; -->
  <!-- font-face: Regular; -->
  <!-- font-size: 14.00000px; -->


</style>

<path id="pid1" fill="none" transform="translate(0,0) scale(1 1)"
      d="

M 273,90  a 216,216  0 0,0  -20,423  
M 253,513  l 0,66
M 253,579  a 280,280  0 1,1  33,4  
M 286,583  l 0,-129
M 286,454  a 152,152  0 0,0  167,-114  
M 548,338  a 248,248  0 0,1  -230,212  
M 318,550  l 0,-64
M 318,486  a 184,184  0 1,0-195,-216  
M 286,486  a 184,184  0 0,1  -165,-152  
M 222,537  a 248,248  0 1,1  327,-262  
M 286,454  l 0,-96
M 286,358  a 57,57  0 1,1  32,-1  
M 318,357  l 0,65
M 318,422  a 120,120  0 0,0  20,-232  
M 254,445  l 0,-69
M 254,376  a 88,88  0 0,1  -33,-41  
M 221,270  a 88,88  0 1,1  126,107  
M 254,445  a 152,152  0 1,1  199,-167  
M 273,187  a 120,120  0 0,0  -51,205  
M 348,514  a 216,216  0 0,0  -8,-423  
M 308,55  l 0,56
M 308,151  l 0,59
M 88,304  l 54,0
M 183,304  l 50,0
M 430,304  l 70,0
M 520,304  l 60,0

"
      />

<path id="cut1" fill="none" stroke="0.001"
      d="circle ??"

<text class="cls1">
  <textPath href="#pid1" dominant-baseline="middle">punkin squish  punkin squish punkin squish punkin squish punkin squish punkin squish punkin squish punkin squish punkin squish punkin squish punkin squish punkin squish punkin squish punkin squish punkin squish punkin squish punkin squish punkin squish punkin squish punkin squish punkin squish punkin squish punkin squish punkin squish punkin squish punkin squish punkin squish punkin squish punkin squish punkin squish punkin squish punkin squish punkin squish punkin squish punkin squish punkin squish punkin squish punkin squish punkin squish punkin squish punkin squish punkin squish punkin squish punkin squish punkin squish punkin squish punkin squish punkin squish punkin squish punkin squish punkin squish punkin squish punkin squish punkin squish punkin squish punkin squish punkin squish punkin squish punkin squish punkin squish punkin squish punkin squish punkin squish punkin squish punkin squish punkin squish punkin squish punkin squish punkin squish punkin squish punkin squish punkin squish punkin squish punkin squish punkin squish punkin squish punkin squish punkin squish punkin squish punkin squish punkin squish punkin squish punkin squish punkin squish punkin squish punkin squish punkin squish punkin squish punkin squish punkin squish punkin squish punkin squish punkin squish punkin squish punkin squish punkin squish punkin squish punkin squish punkin squish punkin squish punkin squish punkin squish punkin squish punkin squish punkin squish punkin squish punkin squish punkin squish punkin squish punkin squish
  punkin squish punkin squish punkin squish punkin squish punkin squish punkin squish punkin squish punkin squish punkin squish punkin squish punkin squish punkin squish punkin squish punkin squish punkin squish punkin squish punkin squish punkin squish punkin squish punkin squish punkin squish 
  </textPath>
</text>
</svg>
